<?xml version="1.0" encoding="utf-8"?>
<svg xmlns="http://www.w3.org/2000/svg" xmlns:v="https://vecta.io/nano" width="288" height="93" fill="#fff">
  <path d="M16.455 85.01h-4.904v7.622H9.573V74.184h6.796c3.355 0 5.678 2.079 5.678 5.457s-2.237 5.37-5.592 5.37zm-.172-9.094h-4.646v7.362h4.646c2.323 0 3.871-1.213 3.871-3.724s-1.635-3.638-3.871-3.638zm13.144 16.716V74.184h1.99V90.9h9.43v1.732h-11.42zm29.377 0l-1.468-4.157h-8.03l-1.468 4.157h-2.072l6.735-18.448h1.641l6.735 18.448h-2.072zm-5.526-15.677l-3.454 9.787h6.907l-3.454-9.787zm18.843 15.852c-2.773 0-4.591-.696-6.325-2.437l1.387-1.393c1.559 1.567 2.945 2.002 5.024 2.002 2.686 0 4.332-1.306 4.332-3.482 0-.957-.26-1.828-.866-2.35s-1.04-.696-2.426-.87l-2.165-.348c-1.473-.261-2.6-.696-3.38-1.393-.952-.87-1.385-2.002-1.385-3.482 0-3.133 2.253-5.223 5.89-5.223 2.338 0 3.899.609 5.457 2.002l-1.299 1.305c-1.125-1.044-2.338-1.567-4.332-1.567-2.424 0-3.897 1.393-3.897 3.482 0 .87.26 1.654.866 2.176s1.558.87 2.512 1.044l1.992.348c1.734.261 2.6.609 3.38 1.305 1.04.87 1.558 2.176 1.558 3.656.088 3.221-2.512 5.223-6.323 5.223zm19.665-16.891v16.716h-1.994V75.916H84.42v-1.732h12.65v1.732h-5.285zm12.312 16.716V74.184h1.933v18.448h-1.933zm16.779.176c-1.82 0-3.466-.696-4.68-1.915-1.733-1.741-1.733-3.568-1.733-7.485s0-5.744 1.733-7.485c1.214-1.219 2.946-1.915 4.68-1.915 3.294 0 5.807 2.002 6.413 5.483h-1.993c-.52-2.263-2.08-3.743-4.42-3.743-1.213 0-2.427.435-3.207 1.306-1.126 1.218-1.299 2.437-1.299 6.354s.087 5.135 1.299 6.354c.78.87 1.994 1.305 3.207 1.305 2.34 0 3.9-1.48 4.42-3.742h1.993c-.606 3.481-3.119 5.483-6.413 5.483zm29.255-.001c-2.774 0-4.594-.696-6.326-2.437l1.387-1.393c1.559 1.567 2.946 2.002 5.025 2.002 2.686 0 4.332-1.306 4.332-3.482 0-.957-.261-1.828-.866-2.35s-1.039-.696-2.426-.87l-2.166-.348c-1.474-.261-2.6-.696-3.38-1.393-.952-.87-1.385-2.002-1.385-3.482 0-3.133 2.251-5.223 5.891-5.223 2.339 0 3.899.609 5.458 2.002l-1.299 1.305c-1.126-1.044-2.339-1.567-4.333-1.567-2.426 0-3.899 1.393-3.899 3.482 0 .87.261 1.654.868 2.176s1.559.87 2.512 1.044l1.992.348c1.734.261 2.6.609 3.379 1.305 1.04.87 1.56 2.176 1.56 3.656 0 3.221-2.512 5.223-6.324 5.223zm20.25.001c-3.702 0-6.371-2.599-6.371-6.237V74.184h1.981v12.214c0 2.772 1.721 4.677 4.39 4.677s4.476-1.819 4.476-4.677V74.184h1.979v12.387c0 3.725-2.754 6.237-6.455 6.237zm25.815-.176l-4.161-8.228h-4.42v8.228h-1.994V74.184h7.107c3.208 0 5.462 1.905 5.462 5.11 0 2.685-1.647 4.417-3.989 4.937l4.422 8.401h-2.427zm-3.728-16.716h-4.94v6.756h4.94c2.168 0 3.728-1.126 3.728-3.378-.086-2.252-1.56-3.378-3.728-3.378zm24.284 14.736c-1.292 1.379-3.013 2.155-4.907 2.155-1.808 0-3.443-.69-4.649-1.897-1.721-1.724-1.721-3.535-1.721-7.415s0-5.691 1.721-7.415c1.206-1.207 2.841-1.897 4.649-1.897 3.53 0 5.853 2.242 6.456 5.518h-1.979c-.517-2.328-2.153-3.707-4.477-3.707-1.205 0-2.41.517-3.186 1.293-1.118 1.207-1.29 2.414-1.29 6.294s.172 5.087 1.29 6.294c.776.862 1.981 1.293 3.186 1.293 1.377 0 2.669-.517 3.443-1.552.775-.862 1.034-1.897 1.034-3.363v-1.379h-4.477v-1.725h6.456v2.932c0 1.897-.43 3.363-1.549 4.57zm9.807 1.98V74.184h11.42v1.732h-9.517v6.496h8.047v1.732h-8.047v6.669h9.517v1.732h-11.42v.087zm29.901 0l-4.16-8.228h-4.42v8.228h-1.994V74.184h7.107c3.207 0 5.46 1.905 5.46 5.11 0 2.685-1.646 4.417-3.987 4.937l4.421 8.401h-2.427zm-3.727-16.716h-4.941v6.756h4.941c2.166 0 3.727-1.126 3.727-3.378s-1.561-3.378-3.727-3.378zm18.703 9.094v7.622h-1.993V85.01l-5.46-10.826h2.166l4.335 8.834 4.334-8.834h2.166l-5.548 10.826zM20.061 5.77v45.887h-5.415V5.77H0V.889h34.797V5.77H20.061zm36.662 17.486c-1.953-1.953-3.374-2.574-6.036-2.574-5.149 0-8.433 4.083-8.433 9.408v21.479h-5.149V16.51h5.149v4.26c1.953-2.929 5.77-4.704 9.853-4.704 3.373 0 5.947.799 8.433 3.284l-3.817 3.905zM67.906 3.73c0-1.953 1.599-3.55 3.551-3.55s3.551 1.598 3.551 3.55-1.599 3.55-3.551 3.55-3.551-1.598-3.551-3.55zm.887 47.928V16.6h5.15v35.059h-5.15zm54.504-.001h-4.439L102.171.889h5.681l13.227 41.005L134.305.889h5.68l-16.688 50.769zm41.365.002v-3.373c-2.839 2.84-5.414 3.817-10.118 3.817-4.882 0-7.724-.888-9.943-3.195-1.686-1.686-2.662-4.349-2.662-7.101 0-6.124 4.261-10.118 12.071-10.118h10.564v-3.373c0-5.148-2.574-7.722-8.965-7.722-4.528 0-6.747 1.065-8.877 3.994l-3.462-3.195c3.106-4.083 6.657-5.237 12.427-5.237 9.409 0 14.026 4.083 14.026 11.716v23.787h-5.061zm0-16.242h-9.852c-5.238 0-7.812 2.13-7.812 6.213s2.486 5.947 8.078 5.947c3.017 0 5.592-.178 7.812-2.308 1.243-1.154 1.774-3.107 1.774-6.035v-3.817zm27.074 16.241c-6.125 0-8.875-3.994-8.875-9.319V.979h5.148v41.183c0 3.461 1.153 5.148 4.705 5.148h2.751v4.438h-3.729v-.089zm21.926 0c-6.125 0-8.877-3.994-8.877-9.319V.979h5.15v41.183c0 3.461 1.153 5.148 4.704 5.148h2.752v4.438h-3.729v-.089zm14.557-16.242c0 7.722 3.64 12.071 10.299 12.071 4.083 0 6.391-1.242 9.231-3.994l3.461 3.107c-3.549 3.55-6.835 5.414-12.87 5.414-9.233 0-15.357-5.592-15.357-17.929 0-11.361 5.504-17.929 14.38-17.929 9.055 0 14.381 6.568 14.381 16.953v2.308h-23.525zm17.399-9.674c-1.331-3.195-4.526-5.237-8.166-5.237-3.729 0-6.835 2.041-8.167 5.237-.798 1.953-.888 3.018-1.066 5.858h18.553c-.177-2.84-.354-3.905-1.154-5.858zm25.831 34.346c-.709 1.953-1.509 3.195-2.486 4.172-1.863 1.775-4.349 2.397-6.835 2.397h-2.218V62.13h1.597c3.551 0 4.616-1.154 5.771-4.349l2.484-6.834-12.604-34.349h5.592l9.587 28.136 9.586-28.136h5.594l-16.068 43.491z"/>
</svg>