<?xml version="1.0" encoding="utf-8"?>
<svg xmlns="http://www.w3.org/2000/svg" xmlns:v="https://vecta.io/nano" width="50" height="50" fill="none">
  <circle cx="24.753" cy="24.753" r="23.753" stroke="#fff" stroke-width="2"/>
  <mask id="A" fill="#fff">
    <path fill-rule="evenodd" d="M36.027 24.667c.067-.05.067-.151 0-.201l-9.23-6.851c-.082-.061-.2-.002-.2.1v5.851H14.301a1 1 0 1 0 0 2h12.297v5.851c0 .103.117.162.2.1l9.23-6.851z"/>
  </mask>
  <g fill="#fff">
    <path fill-rule="evenodd" d="M36.027 24.667c.067-.05.067-.151 0-.201l-9.23-6.851c-.082-.061-.2-.002-.2.1v5.851H14.301a1 1 0 1 0 0 2h12.297v5.851c0 .103.117.162.2.1l9.23-6.851z"/>
    <path d="M36.027 24.466l.596-.803h0l-.596.803zm0 .201l.596.803h0l-.596-.803zm-9.23-7.052l-.596.803h0l.596-.803zm-.2 5.952v1h1v-1h-1zm-12.297 0v-1h0v1zm0 2v-1h0v1zm12.297 0h1v-1h-1v1zm.2 5.952l-.596-.803h0l.596.803zm8.634-6.249c-.471-.35-.471-1.055 0-1.405l1.192 1.606c.606-.45.606-1.357 0-1.807l-1.192 1.606zm-9.23-6.851l9.23 6.851 1.192-1.606-9.23-6.851-1.192 1.606zm1.396-.703c0 .719-.819 1.131-1.396.703l1.192-1.606c-.742-.551-1.796-.021-1.796.903h2zm0 5.851v-5.851h-2v5.851h2zm-13.297 1h12.297v-2H14.301v2zm0 0h0v-2a2 2 0 0 0-2 2h2zm0 0h0-2a2 2 0 0 0 2 2v-2zm12.297 0H14.301v2h12.297v-2zm1 6.851v-5.851h-2v5.851h2zm-1.396-.703c.577-.429 1.396-.017 1.396.703h-2c0 .924 1.053 1.454 1.796.903l-1.192-1.606zm9.23-6.851l-9.23 6.851 1.192 1.606 9.23-6.851-1.192-1.606z" mask="url(#A)"/>
  </g>
</svg>