<?xml version="1.0" encoding="utf-8"?>
<svg xmlns="http://www.w3.org/2000/svg" xmlns:v="https://vecta.io/nano" width="25" height="25" fill="none">
  <mask id="A" maskUnits="userSpaceOnUse" x="0" y="0" width="25" height="25" mask-type="alpha">
    <path fill="#d9d9d9" d="M.125.213h24v24h-24z"/>
  </mask>
  <g mask="url(#A)">
    <path d="M20.075 21.213c-2.083 0-4.142-.454-6.175-1.363s-3.883-2.196-5.55-3.862-2.954-3.517-3.862-5.55-1.363-4.092-1.363-6.175c0-.3.1-.55.3-.75s.45-.3.75-.3h4.05a.93.93 0 0 1 .625.238c.183.158.292.346.325.563l.65 3.5c.033.267.025.492-.025.675a1.05 1.05 0 0 1-.275.475L7.1 11.113a12.09 12.09 0 0 0 1.187 1.787A17.58 17.58 0 0 0 9.8 14.563c.517.517 1.058.996 1.625 1.438a15.78 15.78 0 0 0 1.8 1.212l2.35-2.35a1.4 1.4 0 0 1 .588-.338 1.61 1.61 0 0 1 .712-.062l3.45.7c.233.067.425.188.575.363a.88.88 0 0 1 .225.587v4.05c0 .3-.1.55-.3.75s-.45.3-.75.3zm-13.925-12l1.65-1.65-.425-2.35H5.15l.35 2.025c.15.667.367 1.325.65 1.975zm8.95 8.95a12.4 12.4 0 0 0 1.987.675c.675.167 1.354.275 2.038.325v-2.2l-2.35-.475-1.675 1.675z" fill="#fff"/>
  </g>
</svg>