<?xml version="1.0" encoding="utf-8"?>
<svg xmlns="http://www.w3.org/2000/svg" xmlns:v="https://vecta.io/nano" width="179" height="52" fill="#fff">
  <path d="M23.248 6.652c-3.22-3.68-3.605-4.463-3.64-4.634-.035.17-.42.954-3.675 4.6-1.68 1.942-2.38 3.884-2.625 5.485l.049-.48.056-.542.022-.127v-.003l.363-1.743c.761-2.932 2.516-5.263 4.315-7.655l.06-.079.168-.252c.144-.22.285-.436.462-.634l.124-.147c.199-.242.403-.489.751-.433.262.051.425.273.579.482l.156.2.63.818.059.079c1.799 2.391 3.554 4.723 4.316 7.655.175.613.28 1.227.385 1.874l.052.63.053.63c-.21-1.635-.875-3.68-2.66-5.724zm-9.801 8.518c.07-6.678 6.161-10.426 6.161-10.426s6.16 3.782 6.195 10.528c-.14.852-.35 1.704-.7 2.555-.234.585-.489 1.163-.743 1.74-.547 1.24-1.093 2.478-1.427 3.779-1.247 4.797-1.789 9.717-2.33 14.634l-.295 2.639c-.315 2.794-.42 5.554-.49 8.381a48.05 48.05 0 0 0-.035 1.073l-.035 1.073c-.035.17-.105.852-.105.852s-.105-.681-.105-.852h0c-.035-.715-.07-1.431-.07-2.146-.07-2.794-.175-5.588-.49-8.381l-.295-2.638h0c-.542-4.918-1.084-9.838-2.331-14.635-.359-1.306-.899-2.549-1.44-3.793l-.73-1.726c-.35-.92-.595-1.772-.735-2.658z"/>
  <path d="M18.64 43.838h0c-.206-3.553-.412-7.111-.957-10.645-.42-2.726-1.12-5.588-2.205-8.347-2.17-5.485-6.37-11.482-12.881-12.129-.7-.068-1.855-.17-2.345.511-.42.613.315 4.463.665 5.588.49 1.533 1.33 2.964 2.52 4.054 1.029.953 2.213 1.723 3.398 2.494 1.274.829 2.55 1.66 3.637 2.718 6.055 6.031 7.771 14.787 8.681 22.861-.238-2.361-.375-4.732-.513-7.106zM9.282 19.224c-.91-.886-6.37-4.906-7.386-3.032-.28.511-.28 1.397.175 4.225-.49-.954-.645-1.789-.834-2.809l-.041-.223c-.023-.119-.061-.264-.102-.423-.149-.57-.346-1.324-.073-1.724.385-.579 1.4-.477 2.03-.409 3.395.409 6.23 2.555 8.261 5.145 1.435 1.806 2.485 3.748 3.325 5.792 1.645 4.019 2.345 8.412 2.87 12.67-.057-.312-2.854-13.883-8.225-19.211zm27.372-6.473c.735-.068 1.89-.17 2.345.511.42.613-.315 4.429-.665 5.622-.49 1.499-1.33 2.964-2.52 4.054-1.029.952-2.213 1.723-3.398 2.494-1.274.829-2.55 1.66-3.638 2.719-6.055 5.962-7.735 14.753-8.681 22.827.235-2.344.367-4.688.498-7.03.201-3.581.401-7.157.972-10.721.42-2.692 1.12-5.588 2.205-8.347 2.17-5.485 6.371-11.482 12.881-12.129zM37.891 18l.128-.616c.021-.108.052-.237.087-.379.141-.575.334-1.358.053-1.768-.385-.579-1.4-.477-2.03-.409-3.395.409-6.23 2.555-8.26 5.145-1.4 1.772-2.485 3.748-3.325 5.792-1.61 4.02-2.345 8.381-2.87 12.674a2.8 2.8 0 0 0 .052-.218c.405-1.788 3.177-14.038 8.209-18.998.91-.886 6.406-4.872 7.386-3.032.245.511.28 1.397-.175 4.225.426-.828.575-1.567.747-2.416z" fill-rule="evenodd"/>
  <path d="M60.279 42.745h-2.132v3.314h-.86v-8.021h2.955c1.459 0 2.469.904 2.469 2.372s-.972 2.335-2.431 2.335zm-.075-3.954h-2.02v3.201h2.02c1.01 0 1.683-.527 1.683-1.619s-.711-1.582-1.683-1.582zm5.715 7.268v-8.021h.865v7.267h4.1v.753h-4.965zm12.772 0l-.638-1.807h-3.491l-.638 1.807h-.901l2.928-8.021h.713l2.928 8.021h-.901zm-2.402-6.816l-1.501 4.255h3.003l-1.501-4.255zm8.191 6.892c-1.206 0-1.996-.303-2.75-1.06l.603-.605c.677.681 1.28.87 2.184.87 1.168 0 1.883-.568 1.883-1.514 0-.416-.113-.795-.376-1.022s-.452-.303-1.055-.378l-.941-.151c-.64-.113-1.13-.303-1.469-.605-.414-.378-.602-.87-.602-1.514 0-1.362.979-2.27 2.561-2.27 1.017 0 1.695.265 2.373.87l-.565.568c-.489-.454-1.017-.681-1.883-.681-1.054 0-1.694.605-1.694 1.514 0 .378.113.719.377.946s.677.378 1.092.454l.866.151c.754.114 1.13.265 1.469.568.452.378.678.946.678 1.589.038 1.4-1.092 2.27-2.749 2.27zm8.55-7.344v7.267h-.867v-7.267h-2.336v-.753h5.5v.753H93.03zm5.353 7.268v-8.021h.84v8.021h-.84zm7.294.076a2.84 2.84 0 0 1-2.035-.833c-.753-.757-.753-1.551-.753-3.254s0-2.497.753-3.254c.528-.53 1.281-.833 2.035-.833 1.432 0 2.524.87 2.788 2.384h-.867c-.225-.984-.904-1.627-1.921-1.627-.527 0-1.055.189-1.394.568-.49.53-.565 1.06-.565 2.762s.038 2.233.565 2.762c.339.378.867.568 1.394.568 1.017 0 1.696-.643 1.921-1.627h.867c-.264 1.514-1.356 2.384-2.788 2.384zm12.719 0c-1.206 0-1.997-.303-2.751-1.06l.603-.605c.678.681 1.281.87 2.185.87 1.168 0 1.884-.568 1.884-1.514 0-.416-.114-.795-.377-1.022s-.452-.303-1.055-.378l-.941-.151c-.641-.113-1.131-.303-1.47-.605-.414-.378-.602-.87-.602-1.514 0-1.362.979-2.27 2.561-2.27 1.017 0 1.695.265 2.373.87l-.565.568c-.489-.454-1.017-.681-1.883-.681-1.055 0-1.696.605-1.696 1.514 0 .378.114.719.378.946s.677.378 1.092.454l.866.151c.754.114 1.13.265 1.469.568.452.378.678.946.678 1.589 0 1.4-1.092 2.27-2.749 2.27zm8.804 0c-1.61 0-2.77-1.13-2.77-2.712v-5.385h.861v5.31c0 1.205.748 2.034 1.909 2.034s1.946-.791 1.946-2.034v-5.31h.86v5.385c0 1.619-1.197 2.712-2.806 2.712zm11.222-.076l-1.808-3.577h-1.922v3.577h-.867v-8.021h3.09c1.395 0 2.374.828 2.374 2.222 0 1.167-.716 1.92-1.734 2.146l1.923 3.652h-1.056zm-1.62-7.267h-2.148v2.937h2.148c.943 0 1.62-.49 1.62-1.469-.037-.979-.677-1.469-1.62-1.469zm10.558 6.406c-.562.6-1.31.937-2.133.937-.786 0-1.497-.3-2.021-.825-.749-.75-.749-1.537-.749-3.224s0-2.474.749-3.224c.524-.525 1.235-.825 2.021-.825 1.534 0 2.544.975 2.807 2.399h-.861c-.225-1.012-.936-1.612-1.946-1.612-.524 0-1.048.225-1.385.562-.486.525-.561 1.05-.561 2.736s.075 2.212.561 2.736c.337.375.861.562 1.385.562.598 0 1.16-.225 1.496-.675.337-.375.45-.825.45-1.462v-.6h-1.946v-.75h2.807v1.275c0 .825-.188 1.462-.674 1.987zm4.264.861v-8.021h4.965v.753h-4.138v2.824h3.498v.753h-3.498v2.899h4.138v.753h-4.965v.038zm12.999 0l-1.808-3.577h-1.922v3.577h-.867v-8.021h3.09c1.394 0 2.374.828 2.374 2.222 0 1.167-.716 1.92-1.734 2.146l1.923 3.652h-1.056zm-1.62-7.267h-2.148v2.937h2.148c.942 0 1.62-.49 1.62-1.469s-.678-1.469-1.62-1.469zm8.131 3.953v3.314h-.866v-3.314l-2.374-4.707h.942l1.884 3.841 1.884-3.841h.942l-2.412 4.707zM61.847 8.296v19.95h-2.354V8.296h-6.368V6.173h15.128v2.122h-6.406zm15.939 7.601c-.849-.849-1.467-1.119-2.624-1.119-2.238 0-3.666 1.775-3.666 4.09v9.338h-2.238V12.965h2.238v1.852c.849-1.274 2.508-2.045 4.284-2.045 1.467 0 2.586.347 3.666 1.428l-1.659 1.698zm4.862-8.489a1.55 1.55 0 0 1 1.544-1.543 1.55 1.55 0 0 1 1.544 1.543 1.55 1.55 0 0 1-1.544 1.544 1.55 1.55 0 0 1-1.544-1.544zm.386 20.837V13.003h2.239v15.242h-2.239zm23.695.001h-1.93L97.544 6.173h2.47L105.764 24l5.751-17.827h2.469l-7.255 22.072zm17.984-.001v-1.466c-1.235 1.235-2.354 1.659-4.399 1.659-2.123 0-3.358-.386-4.323-1.389-.733-.733-1.157-1.891-1.157-3.087 0-2.662 1.852-4.399 5.248-4.399h4.593v-1.466c0-2.238-1.119-3.357-3.898-3.357-1.969 0-2.933.463-3.86 1.736l-1.505-1.389c1.351-1.775 2.895-2.277 5.403-2.277 4.091 0 6.098 1.775 6.098 5.094v10.341h-2.2zm0-7.061h-4.284c-2.277 0-3.396.926-3.396 2.701s1.081 2.585 3.512 2.585c1.312 0 2.431-.077 3.396-1.003.541-.502.772-1.351.772-2.624v-1.659zm11.771 7.061c-2.663 0-3.859-1.736-3.859-4.052V6.212h2.238v17.905c0 1.505.501 2.238 2.045 2.238h1.197v1.929h-1.621v-.039zm9.532 0c-2.663 0-3.86-1.736-3.86-4.052V6.212h2.239v17.905c0 1.505.502 2.238 2.046 2.238h1.196v1.929h-1.621v-.039zm6.329-7.061c0 3.357 1.582 5.248 4.477 5.248 1.775 0 2.779-.54 4.014-1.736l1.505 1.351c-1.544 1.543-2.972 2.354-5.596 2.354-4.014 0-6.676-2.431-6.676-7.795 0-4.939 2.392-7.795 6.251-7.795 3.937 0 6.252 2.856 6.252 7.37v1.003h-10.227zm7.564-4.206c-.578-1.389-1.968-2.277-3.55-2.277-1.621 0-2.971.887-3.551 2.277-.347.849-.386 1.312-.463 2.547h8.066c-.077-1.235-.154-1.698-.502-2.547zm11.231 14.934c-.309.849-.656 1.389-1.081 1.814-.81.772-1.891 1.042-2.972 1.042h-.964V32.8h.694c1.544 0 2.007-.502 2.509-1.891l1.08-2.971-5.48-14.933h2.431l4.168 12.232 4.168-12.232h2.432l-6.985 18.908z"/>
</svg>