<?xml version="1.0" encoding="utf-8"?>
<!-- Generator: Adobe Illustrator 24.2.1, SVG Export Plug-In . SVG Version: 6.00 Build 0)  -->
<svg version="1.1" id="Layer_1" xmlns="http://www.w3.org/2000/svg" xmlns:xlink="http://www.w3.org/1999/xlink" x="0px" y="0px"
	 viewBox="0 0 740 32" style="enable-background:new 0 0 740 32;" xml:space="preserve">
<style type="text/css">
	.st0{fill:#333333;}
</style>
<path class="st0" d="M200.6,11.6h5v16.2h-5V11.6z"/>
<path class="st0" d="M219.4,11.3c-2.9,0-4.7,1.6-5,2.8v-2.6h-5.7v16.2h5.7v-8.8c0-0.4,0-0.9,0.2-1.3c0.5-1.1,1.6-1.9,2.8-1.9
	c1.9,0,2.9,1.5,2.9,3.7v8.4h5.7v-9.2C225.9,13.6,222.9,11.3,219.4,11.3L219.4,11.3z"/>
<path class="st0" d="M203,4.2c-1.5-0.2-2.9,0.9-3.1,2.5V7c0.3,1.7,1.9,2.8,3.6,2.5c1.3-0.2,2.3-1.2,2.5-2.5
	C206.1,5.3,205,4.2,203,4.2z"/>
<path class="st0" d="M69.9,5.7c-1,0.7-2.2,1.1-3.4,1.3c-1-1-2.4-1.6-3.9-1.6c-2.9,0-5.3,2.4-5.4,5.3c0,0.4,0.1,0.8,0.2,1.1
	c-4.3-0.1-8.3-2.1-11-5.5c-0.4,0.9-0.6,1.8-0.6,2.8c0,1.8,0.9,3.4,2.4,4.4c-0.8,0-1.7-0.2-2.4-0.6c0,2.5,1.7,4.7,4.2,5.2
	c-0.5,0.2-1,0.2-1.5,0.2l-1-0.2c0.7,2.2,2.7,3.6,5,3.7c-1.9,1.5-4.2,2.3-6.6,2.3h-1.3c2.4,1.6,5.2,2.5,8.1,2.4
	c9.9,0,15.2-8.3,15.2-15.2v-0.8c1.1-0.8,2-1.7,2.8-2.8c-1,0.4-2,0.6-3.1,0.8C68.7,7.9,69.5,6.9,69.9,5.7z"/>
<path class="st0" d="M9.7,7.3c0.7,0,1.4,0.1,2.1,0.3l0.6-4C10.8,3.2,9.2,3,7.5,3.1C5.9,3,4.3,3.8,3.4,5.1C2.6,6.2,2.6,8,2.6,9.1v2.6
	h-2.8v3.9h2.8V29h5V15.6h4l0.3-3.7H7.7V8.8C7.7,7.7,8.7,7.3,9.7,7.3z"/>
<path class="st0" d="M109.5,14.6V18h5.6c-0.5,2.6-2.9,4.4-5.6,4.2c-3.4,0-6.2-2.8-6.2-6.2s2.8-6.2,6.2-6.2c1.4,0,2.8,0.5,3.9,1.5
	l2.7-2.6c-1.8-1.7-4.1-2.6-6.6-2.6c-5.4,0-9.8,4.4-9.8,9.8s4.4,9.8,9.8,9.8c5.7,0,9.4-4,9.4-9.6c0-0.5-0.1-1.1-0.2-1.6h-9.2
	L109.5,14.6z"/>
<path class="st0" d="M169.2,20.6c0-0.3-0.2-0.5-0.5-0.5c-0.2-0.1-0.4,0.1-0.5,0.3v0.2v1.1h1V20.6z"/>
<path class="st0" d="M169,15.4h-15.7c-2.3,0-4.2,1.9-4.2,4.2v3.7c0,2.3,1.9,4.2,4.2,4.2H169c2.3,0,4.2-1.9,4.2-4.2v-3.7
	C173.2,17.3,171.4,15.4,169,15.4z M155.7,18.1h-1.4v7.6h-1.5v-7.6h-1.5V17h4.4V18.1z M159.8,25.7h-1.3v-0.6
	c-0.3,0.4-0.8,0.6-1.3,0.7c-0.3,0-0.7-0.1-0.9-0.4s-0.3-0.7-0.2-1.1v-5.1h1.4v5.1c0,0.3,0.1,0.5,0.4,0.5l0.6-0.3v-5.3h1.4
	L159.8,25.7z M165.2,24.3c0.1,0.4,0,0.8-0.2,1.1s-0.6,0.4-0.9,0.4c-0.5-0.1-1-0.3-1.3-0.7v0.6h-1.4V17h1.4v2.8
	c0.4-0.4,0.9-0.7,1.4-0.7c0.3,0,0.6,0.2,0.8,0.4c0.2,0.4,0.3,0.8,0.2,1.2V24.3z M168.6,25.8c-0.9,0.1-1.8-0.6-1.9-1.5
	c0-0.1,0-0.2,0-0.3v-3c0-1.2,0.7-1.8,2-1.8c0.9-0.2,1.7,0.4,1.9,1.3v0.3v1.9h-2.5v1.4c0,0.5,0.1,0.7,0.5,0.7l0.4-0.2
	c0.1-0.2,0.1-0.5,0.1-0.7v-0.5h1.4v0.2V24c0.1,0.9-0.6,1.7-1.6,1.8C168.9,25.8,168.8,25.8,168.6,25.8L168.6,25.8z"/>
<path class="st0" d="M163.4,20.2l-0.6,0.3v4l0.6,0.3c0.3,0,0.4-0.2,0.4-0.5v-3.6C163.8,20.3,163.7,20.2,163.4,20.2z"/>
<path class="st0" d="M155,14.1h1.7v-4l1.8-5.6h-1.7l-0.3,0.9l-0.2,0.7l-0.1,0.7L156,7.5l-0.1,0.6h-0.1l-0.1-0.6l-0.2-0.7l-0.1-0.7
	l-0.2-0.7l-0.3-0.9h-1.8l1.9,5.6L155,14.1z"/>
<path class="st0" d="M160.8,14.2c1,0.2,1.9-0.5,2.1-1.5c0-0.2,0-0.4,0-0.5V8.9c0-1.2-1-2.2-2.1-2.2c-1.2,0-2.2,1-2.2,2.2v3.3
	c-0.1,1,0.5,1.9,1.5,2C160.4,14.3,160.6,14.3,160.8,14.2z M160.2,8.7c-0.1-0.3,0.2-0.6,0.5-0.7h0.1c0.3,0,0.6,0.3,0.6,0.6v0.1v3.7
	c0.1,0.3,0,0.7-0.3,0.8s-0.7,0-0.8-0.3c-0.1-0.2-0.1-0.3,0-0.5V8.7H160.2z"/>
<path class="st0" d="M165.7,14.2c0.6,0,1.1-0.3,1.5-0.7v0.6h1.4V7H167v5.8l-0.7,0.3c-0.3,0-0.4-0.2-0.4-0.5V7h-1.6v5.6
	c-0.1,0.4,0,0.8,0.2,1.2C164.9,14.1,165.3,14.3,165.7,14.2L165.7,14.2z"/>
<path class="st0" d="M368.4,21.1L364,5.4h-6.3l7.6,21.2h5.8l7.8-21.2h-6L368.4,21.1z"/>
<path class="st0" d="M313.5,9.3c-0.5-0.6-1.2-1.1-1.9-1.4c-0.9-0.3-1.8-0.5-2.8-0.5c-0.8,0-1.6,0.1-2.3,0.4l-1.8,0.9
	c-0.5,0.3-0.9,0.7-1.3,1.2l-0.7,1.1V0.8h-1.5v23h1.5v-8.3c0-0.8,0.2-1.6,0.4-2.3c0.2-0.8,0.6-1.5,1.1-2.1c0.5-0.7,1.1-1.2,1.8-1.6
	c0.8-0.4,1.7-0.6,2.6-0.6c0.7,0,1.4,0.1,2,0.3s1.1,0.5,1.5,1c0.4,0.6,0.8,1.2,0.9,1.9c0.2,1,0.3,1.9,0.3,2.9v8.8h1.5v-9.4
	c0-1-0.1-1.9-0.3-2.9C314.4,10.7,314,10,313.5,9.3L313.5,9.3z"/>
<path class="st0" d="M326.1,7.5c-1.2,0-2.4,0.2-3.5,0.6c-1,0.4-2,1-2.8,1.7c-0.8,0.8-1.5,1.7-1.9,2.7c-0.5,1.1-0.7,2.3-0.7,3.5
	c0,1.1,0.1,2.2,0.4,3.2c0.3,0.9,0.7,1.8,1.3,2.6c0.6,0.7,1.3,1.3,2.2,1.7c1,0.4,2.1,0.6,3.2,0.6c0.9,0,1.8-0.2,2.6-0.5
	c0.6-0.3,1.2-0.6,1.8-1s1-0.9,1.4-1.5v2.4c0,0.8-0.1,1.6-0.3,2.4c-0.3,1.5-1.4,2.7-2.8,3.2c-2,0.6-4.1,0.6-6-0.1l-1.7-1l-0.9,1.2
	l0.8,0.6l1.2,0.6l1.6,0.5l2.1,0.2c1.2,0,2.4-0.1,3.5-0.5c0.9-0.3,1.7-0.8,2.3-1.5s1.1-1.5,1.3-2.4c0.3-1,0.4-2.1,0.4-3.2V8.6
	l-2.3-0.8C328.3,7.6,327.2,7.5,326.1,7.5z M330.3,17.6c0,0.5-0.1,1-0.3,1.5c-0.2,0.6-0.6,1.2-1,1.7c-0.5,0.6-1.1,1.1-1.8,1.4
	c-0.8,0.4-1.7,0.6-2.6,0.6s-1.8-0.2-2.6-0.6c-0.7-0.4-1.3-0.9-1.7-1.5c-0.5-0.6-0.8-1.3-1-2.1s-0.3-1.7-0.3-2.5c0-1,0.2-2.1,0.6-3
	c0.3-0.8,0.8-1.6,1.5-2.2s1.4-1.1,2.3-1.4s1.8-0.5,2.7-0.5h1.8l1.3,0.3l1.1,0.3V17.6z"/>
<path class="st0" d="M415.4,5.6c-1.3,0.2-2.6,0.7-3.6,1.6c-1.2,1-2.1,2.2-2.7,3.6V5.6h-1.8v20.8h1.9v-13c0.5-1.7,1.4-3.2,2.8-4.3
	c1.3-1.1,3-1.7,4.7-1.7V5.6H415.4z"/>
<path class="st0" d="M430.8,16.9c-0.7-0.5-1.6-0.8-2.4-1.1l-3.3-0.9l-2.4-0.7l-1.6-0.7c-0.4-0.2-0.7-0.6-0.9-1
	c-0.2-0.5-0.3-1-0.3-1.5c0-0.7,0.1-1.3,0.4-1.9c0.3-0.5,0.6-1,1.1-1.3c0.5-0.4,1.1-0.6,1.7-0.8l2.1-0.2c1.2,0,2.3,0.2,3.4,0.6
	c1,0.4,1.9,1,2.6,1.8l1-1.1c-0.7-0.9-1.7-1.6-2.8-2.1c-1.3-0.6-2.7-0.8-4.1-0.8c-0.9,0-1.9,0.1-2.8,0.4c-0.8,0.2-1.6,0.6-2.3,1.1
	s-1.2,1.1-1.6,1.9s-0.6,1.8-0.6,2.7c0,0.7,0.1,1.4,0.4,2s0.7,1,1.2,1.4c0.6,0.4,1.3,0.8,2,1l2.9,0.8l2.7,0.8l2,0.8
	c0.5,0.3,0.9,0.6,1.2,1.1s0.4,1,0.4,1.6c0.1,1.3-0.6,2.5-1.6,3.2c-1.2,0.8-2.7,1.2-4.2,1.1c-1.3,0-2.6-0.2-3.8-0.7s-2.3-1.3-3.3-2.2
	l-1,1.4c1,1.1,2.3,1.9,3.7,2.4s2.9,0.8,4.4,0.8c2,0.1,3.9-0.5,5.5-1.7c1.4-1.1,2.2-2.7,2.1-4.5c0-0.8-0.1-1.5-0.5-2.2
	C431.8,17.8,431.4,17.3,430.8,16.9L430.8,16.9z"/>
<path class="st0" d="M264.4,22.3c-0.5-0.3-1.2-0.2-1.5,0.3l-1,1.1c-1.3,1.4-2.6,2.9-3.7,4.5v0.5c0,0.2,0.1,0.4,0.3,0.6
	c0.8,1,4.5,2.3,5.8,2.1c0.3-0.1,0.6-0.3,0.8-0.6c0.2-0.2,0.2-0.3,0.2-5.2c0-0.7-0.1-1.4-0.2-2.1C265.2,23,264.9,22.5,264.4,22.3
	L264.4,22.3z"/>
<path class="st0" d="M261.9,20.3c0.5-0.1,0.9-0.6,0.8-1.1c0-0.6-0.3-1.1-0.8-1.3l-1.5-0.6c-5-1.9-5.2-2.1-5.5-2.1
	c-0.4,0-0.8,0.2-1,0.5c-0.5,0.8-0.6,3.4-0.5,5c0,0.5,0.1,0.9,0.3,1.3s0.6,0.6,1,0.6c0.3,0,0.5,0,5-1.6L261.9,20.3z"/>
<path class="st0" d="M269.2,18.2l1.6-0.5c5.2-1.3,5.5-1.3,5.7-1.5c0.4-0.2,0.6-0.6,0.5-1c-0.2-1.3-2.4-4.7-3.6-5.2
	c-0.4-0.2-0.7-0.2-1.1,0c-0.3,0.2-0.5,0.3-3.2,4.2l-1.3,1.8c-0.4,0.4-0.4,1.1,0,1.5C268.1,18,268.7,18.3,269.2,18.2z"/>
<path class="st0" d="M263.9,0.7c-1.5-0.3-6.5,1.1-7.4,2.1c-0.3,0.3-0.4,0.7-0.3,1.1c0.2,0.3,2.3,3.9,3.9,6.3l2.6,4
	c1,1.5,1.6,1.1,1.9,1.1s1-0.3,1-2.1S264.7,2,264.7,1.6C264.7,1.1,264.4,0.8,263.9,0.7L263.9,0.7z"/>
<path class="st0" d="M276.8,23.2c-0.3-0.2-0.5-0.3-5-1.8l-2.1-0.6c-0.6-0.2-1.2,0-1.5,0.5c-0.5,0.4-0.6,1.1-0.2,1.6l0.8,1.3
	c2.6,4.4,2.9,4.7,3.1,4.9c0.3,0.3,0.7,0.4,1.1,0.2c1.1-0.5,3.7-3.7,4-5C277.3,23.9,277.2,23.5,276.8,23.2L276.8,23.2z"/>
<path class="st0" d="M11.4,15.9v0.2V15.9z"/>
<path class="st0" d="M523.5,3c-7.2,0-13,5.8-13,13s5.8,13,13,13s13-5.8,13-13S530.7,3,523.5,3z M511.8,16c0-1.7,0.4-3.3,1-4.8
	l5.6,15.3C514.5,24.6,511.8,20.6,511.8,16L511.8,16z M523.5,27.7c-1.1,0-2.3-0.2-3.3-0.5l3.5-10.2l3.6,9.8c0,0.1,0.1,0.1,0.1,0.2
	C526.2,27.5,524.9,27.7,523.5,27.7L523.5,27.7z M525.1,10.5c0.7,0,1.3-0.1,1.3-0.1c0.6-0.1,0.6-1-0.1-1c0,0-1.9,0.1-3.1,0.1
	c-1.1,0-3.1-0.1-3.1-0.1c-0.6,0-0.7,0.9-0.1,1c0,0,0.6,0.1,1.2,0.1l1.8,5l-2.6,7.7l-4.3-12.7c0.7,0,1.3-0.1,1.3-0.1
	c0.6-0.1,0.6-1-0.1-1c0,0-1.9,0.1-3.1,0.1c-0.2,0-0.5,0-0.8,0c2.1-3.2,5.7-5.3,9.8-5.3c3,0,5.8,1.2,7.9,3.1c-0.1,0-0.1,0-0.2,0
	c-1.1,0-2,1-2,2.1c0,1,0.6,1.8,1.1,2.7c0.4,0.8,1,1.8,1,3.2c0,1-0.4,2.2-0.9,3.8l-1.2,3.9L525.1,10.5z M533.8,10.4
	c0.9,1.7,1.4,3.6,1.4,5.6c0,4.3-2.3,8.1-5.8,10.1l3.6-10.3c0.7-1.7,0.9-3,0.9-4.2C533.8,11.2,533.8,10.8,533.8,10.4L533.8,10.4z"/>
<path class="st0" d="M575.5,27.9c-0.1,0-0.1,0-0.2,0h-0.1c-1.5,0-2.4-0.7-3.4-1.3c-0.6-0.5-1.2-0.9-2-1c-0.3-0.1-0.7-0.1-1-0.1
	c-0.6,0-1.1,0.1-1.4,0.2c-0.2,0-0.4,0.1-0.5,0.1s-0.3,0-0.4-0.3c-0.1-0.2-0.1-0.4-0.1-0.6c-0.1-0.5-0.2-0.8-0.4-0.8
	c-2.4-0.4-3-0.9-3.2-1.2c0-0.1,0-0.1,0-0.2s0.1-0.3,0.2-0.3c3.6-0.6,5.3-4.3,5.3-4.5c0.2-0.5,0.3-0.8,0.1-1.2
	c-0.2-0.6-1.1-0.8-1.6-1c-0.1,0-0.3-0.1-0.4-0.1c-1.1-0.4-1.2-0.9-1.1-1.1c0.1-0.4,0.6-0.6,1-0.6c0.1,0,0.2,0,0.3,0.1
	c0.5,0.2,0.9,0.3,1.3,0.3c0.5,0,0.7-0.2,0.8-0.2c0-0.2,0-0.5,0-0.8c-0.1-1.7-0.2-3.9,0.3-5.1c1.6-3.7,5.1-3.9,6.1-3.9h0.4h0.1
	c1,0,4.5,0.3,6.1,3.9c0.5,1.2,0.4,3.4,0.3,5.1v0.1v0.7c0,0,0.2,0.2,0.7,0.2c0.4,0,0.8-0.1,1.2-0.3c0.1-0.1,0.3-0.1,0.4-0.1
	c0.2,0,0.3,0,0.4,0.1c0.4,0.1,0.6,0.4,0.6,0.7s-0.2,0.6-1.1,1c-0.1,0-0.2,0.1-0.4,0.1c-0.5,0.2-1.4,0.4-1.6,1
	c-0.1,0.3-0.1,0.7,0.1,1.2c0.1,0.2,1.7,3.9,5.3,4.5c0.1,0,0.2,0.1,0.2,0.3V23c-0.1,0.4-0.8,0.8-3.2,1.2c-0.2,0-0.3,0.3-0.4,0.8
	c0,0.2-0.1,0.4-0.1,0.6c-0.1,0.2-0.2,0.3-0.3,0.3s-0.3,0-0.5-0.1c-0.4-0.1-0.8-0.2-1.4-0.2c-0.3,0-0.7,0-1,0.1c-0.7,0.1-1.3,0.5-2,1
	C577.9,27.2,577,27.9,575.5,27.9L575.5,27.9z"/>
<path class="st0" d="M471.9,5.3c3.5,0,3.9,0,5.2,0.1s1.9,0.3,2.4,0.4c0.6,0.2,1,0.5,1.5,1s0.7,0.9,1,1.5c0.2,0.5,0.4,1.1,0.4,2.4
	c0.1,1.4,0.1,1.8,0.1,5.2s0,3.9-0.1,5.2s-0.3,1.9-0.4,2.4c-0.2,0.6-0.5,1-1,1.5s-0.9,0.7-1.5,1c-0.5,0.2-1.1,0.4-2.4,0.4
	c-1.4,0.1-1.8,0.1-5.2,0.1c-3.5,0-3.9,0-5.2-0.1s-1.9-0.3-2.4-0.4c-0.6-0.2-1-0.5-1.5-1s-0.7-0.9-1-1.5c-0.2-0.5-0.4-1.1-0.4-2.4
	c-0.1-1.4-0.1-1.8-0.1-5.2s0-3.9,0.1-5.2s0.3-1.9,0.4-2.4c0.2-0.6,0.5-1,1-1.5s0.9-0.7,1.5-1c0.5-0.2,1.1-0.4,2.4-0.4
	C468,5.3,468.4,5.3,471.9,5.3 M471.9,3c-3.5,0-4,0-5.3,0.1c-1.4,0.1-2.3,0.3-3.1,0.6c-0.9,0.3-1.6,0.8-2.3,1.5s-1.2,1.4-1.5,2.3
	c-0.3,0.8-0.5,1.8-0.6,3.1c-0.1,1.4-0.1,1.8-0.1,5.3s0,4,0.1,5.3c0.1,1.4,0.3,2.3,0.6,3.1c0.3,0.9,0.8,1.6,1.5,2.3s1.4,1.2,2.3,1.5
	c0.8,0.3,1.8,0.5,3.1,0.6c1.4,0.1,1.8,0.1,5.3,0.1s4,0,5.3-0.1c1.4-0.1,2.3-0.3,3.1-0.6c0.9-0.3,1.6-0.8,2.3-1.5s1.2-1.4,1.5-2.3
	c0.3-0.8,0.5-1.8,0.6-3.1c0.1-1.4,0.1-1.8,0.1-5.3s0-4-0.1-5.3c-0.1-1.4-0.3-2.3-0.6-3.1c-0.3-0.9-0.8-1.6-1.5-2.3s-1.4-1.2-2.3-1.5
	c-0.8-0.3-1.8-0.5-3.1-0.6C475.8,3,475.4,3,471.9,3z"/>
<path class="st0" d="M471.9,9.3c-3.7,0-6.7,3-6.7,6.6s3,6.6,6.7,6.6s6.6-3,6.6-6.6S475.5,9.3,471.9,9.3z M471.9,20.2
	c-2.4,0-4.3-1.9-4.3-4.3s1.9-4.3,4.3-4.3s4.3,1.9,4.3,4.3S474.2,20.2,471.9,20.2z"/>
<circle class="st0" cx="478.8" cy="9" r="1.6"/>
<path class="st0" d="M628.5,27.9c-2,0-3.9-1-5.2-2.9c-2.8-4.2-5.8-8.2-8.8-12.3c-0.2-0.3-0.5-0.6-0.6-1c-0.3-0.6-0.3-1.3,0.2-1.8
	c0.4-0.5,1-0.6,1.6-0.4c1.2,0.4,2.3,0.9,3.4,1.4c0.6,0.3,1.4,0.6,1.4,0.6s0.5-0.8,0.8-1.3c0.5-0.9,1-1.7,1.5-2.5
	c3-4.7,9.6-4.6,12.3,0.4c0.2,0.3,0.3,0.7,0.6,1c0.2,0.2,0.5,0.3,0.9,0.4c0.7,0.2,1.1,0.7,1.1,1.4s-0.4,1.1-1,1.3
	c-0.4,0.2-0.6,0.2-0.8,0.5c-0.8,0.9-0.9,2.4-1.6,3.2c-0.1,0.1-0.1,0.2-0.1,0.3c0.1,0.3,0.5,0.7,0.7,1c1.4,2.4,1.7,4.8,0.2,7.3
	C633.6,26.8,631.6,27.9,628.5,27.9L628.5,27.9z M632.6,21.4c0-1.8-0.8-2.8-2.4-3.4c-2-0.7-4.1-1.4-6.2-2.1c-0.3-0.1-0.7-0.2-1-0.2
	c-1.1,0-1.7,0.8-1,1.6c1.7,2.2,3.3,4.5,5.4,6.4c1,0.9,2.3,0.9,3.5,0.3C632.1,23.5,632.6,22.5,632.6,21.4z M628.8,13.6
	c1.6,0,2.9-1.2,2.9-2.7c0-1.4-1.3-2.8-2.7-2.8c-1.6,0-2.8,1.2-2.8,2.8S627.2,13.6,628.8,13.6z"/>
<path class="st0" d="M677.2,3c-7.2,0-13,5.8-13,13c0,5.5,3.4,10.2,8.3,12.1c-0.1-1-0.2-2.6,0-3.7c0.2-1,1.5-6.5,1.5-6.5
	s-0.4-0.8-0.4-1.9c0-1.8,1-3.2,2.4-3.2c1.1,0,1.6,0.8,1.6,1.8c0,1.1-0.7,2.8-1.1,4.3c-0.3,1.3,0.6,2.3,1.9,2.3c2.3,0,4.1-2.4,4.1-6
	c0-3.1-2.2-5.3-5.4-5.3c-3.7,0-5.9,2.8-5.9,5.6c0,1.1,0.4,2.3,1,3c0.1,0.1,0.1,0.2,0.1,0.4c-0.1,0.4-0.3,1.3-0.4,1.5
	s-0.2,0.3-0.4,0.2c-1.6-0.8-2.6-3.1-2.6-5c0-4.1,3-7.9,8.6-7.9c4.5,0,8,3.2,8,7.5c0,4.5-2.8,8.1-6.7,8.1c-1.3,0-2.6-0.7-3-1.5
	c0,0-0.7,2.5-0.8,3.1c-0.3,1.1-1.1,2.5-1.6,3.4c1.2,0.4,2.5,0.6,3.8,0.6c7.2,0,13-5.8,13-13C690.2,8.8,684.4,3,677.2,3L677.2,3z"/>
<path class="st0" d="M628.5,27.9c-2,0-3.9-1-5.2-2.9c-2.8-4.2-5.8-8.2-8.8-12.3c-0.2-0.3-0.5-0.6-0.6-1c-0.3-0.6-0.3-1.3,0.2-1.8
	c0.4-0.5,1-0.6,1.6-0.4c1.2,0.4,2.3,0.9,3.4,1.4c0.6,0.3,1.4,0.6,1.4,0.6s0.5-0.8,0.8-1.3c0.5-0.9,1-1.7,1.5-2.5
	c3-4.7,9.6-4.6,12.3,0.4c0.2,0.3,0.3,0.7,0.6,1c0.2,0.2,0.5,0.3,0.9,0.4c0.7,0.2,1.1,0.7,1.1,1.4s-0.4,1.1-1,1.3
	c-0.4,0.2-0.6,0.2-0.8,0.5c-0.8,0.9-0.9,2.4-1.6,3.2c-0.1,0.1-0.1,0.2-0.1,0.3c0.1,0.3,0.5,0.7,0.7,1c1.4,2.4,1.7,4.8,0.2,7.3
	C633.6,26.8,631.6,27.9,628.5,27.9L628.5,27.9z M632.6,21.4c0-1.8-0.8-2.8-2.4-3.4c-2-0.7-4.1-1.4-6.2-2.1c-0.3-0.1-0.7-0.2-1-0.2
	c-1.1,0-1.7,0.8-1,1.6c1.7,2.2,3.3,4.5,5.4,6.4c1,0.9,2.3,0.9,3.5,0.3C632.1,23.5,632.6,22.5,632.6,21.4z M628.8,13.6
	c1.6,0,2.9-1.2,2.9-2.7c0-1.4-1.3-2.8-2.7-2.8c-1.6,0-2.8,1.2-2.8,2.8S627.2,13.6,628.8,13.6z"/>
<path class="st0" d="M677.2,3c-7.2,0-13,5.8-13,13c0,5.5,3.4,10.2,8.3,12.1c-0.1-1-0.2-2.6,0-3.7c0.2-1,1.5-6.5,1.5-6.5
	s-0.4-0.8-0.4-1.9c0-1.8,1-3.2,2.4-3.2c1.1,0,1.6,0.8,1.6,1.8c0,1.1-0.7,2.8-1.1,4.3c-0.3,1.3,0.6,2.3,1.9,2.3c2.3,0,4.1-2.4,4.1-6
	c0-3.1-2.2-5.3-5.4-5.3c-3.7,0-5.9,2.8-5.9,5.6c0,1.1,0.4,2.3,1,3c0.1,0.1,0.1,0.2,0.1,0.4c-0.1,0.4-0.3,1.3-0.4,1.5
	s-0.2,0.3-0.4,0.2c-1.6-0.8-2.6-3.1-2.6-5c0-4.1,3-7.9,8.6-7.9c4.5,0,8,3.2,8,7.5c0,4.5-2.8,8.1-6.7,8.1c-1.3,0-2.6-0.7-3-1.5
	c0,0-0.7,2.5-0.8,3.1c-0.3,1.1-1.1,2.5-1.6,3.4c1.2,0.4,2.5,0.6,3.8,0.6c7.2,0,13-5.8,13-13C690.2,8.8,684.4,3,677.2,3L677.2,3z"/>
<path class="st0" d="M731.8,3h-3.7l0,18.1c0,2.2-2,4-4.2,4c-2.2,0-4-1.8-4-4c0-2.2,1.8-4,4-4c0.2,0,0.3,0,0.5,0v-3.9
	c-0.2,0-0.3,0-0.5,0c-4.3,0-7.9,3.5-7.9,7.9s3.5,7.9,7.9,7.9s7.9-3.5,7.9-7.9V10.4c1.3,2,3.5,3.1,5.8,3.1c0.2,0,0.4,0,0.6,0h0V9.2
	C734.8,8.9,732.2,6.3,731.8,3z"/>
</svg>
